<svg xmlns="http://www.w3.org/2000/svg" width="390" height="800" viewBox="0 0 390 800"><rect x="0" y="0" width="390" height="800" fill="#F2F6F7" rx="0"/><rect x="0" y="0" width="390" height="160" fill="#00203F" rx="0"/><text x="24" y="40" font-family="Arial,sans-serif" font-size="14" fill="#8AE0CA" font-weight="700">NEXVORA</text><text x="24" y="78" font-family="Arial,sans-serif" font-size="30" fill="white" font-weight="700">BookView</text><text x="24" y="113" font-family="Arial,sans-serif" font-size="15" fill="#CEE2E8" font-weight="400">Your next session. Sorted.</text><text x="24" y="194" font-family="Arial,sans-serif" font-size="23" fill="#00203F" font-weight="700">My bookings</text><rect x="20" y="218" width="350" height="119" fill="white" rx="12"/><text x="38" y="247" font-family="Arial,sans-serif" font-size="13" fill="#017670" font-weight="700">THU 15 OCT</text><text x="38" y="276" font-family="Arial,sans-serif" font-size="18" fill="#00203F" font-weight="700">09:00 · Swim coaching</text><rect x="38" y="294" width="105" height="25" fill="#D9F2E9" rx="12"/><text x="48" y="311" font-family="Arial,sans-serif" font-size="12" fill="#017670" font-weight="400">Confirmed</text><text x="255" y="312" font-family="Arial,sans-serif" font-size="12" fill="#00203F" font-weight="400">View details</text><rect x="20" y="353" width="350" height="119" fill="white" rx="12"/><text x="38" y="382" font-family="Arial,sans-serif" font-size="13" fill="#017670" font-weight="700">SAT 17 OCT</text><text x="38" y="411" font-family="Arial,sans-serif" font-size="18" fill="#00203F" font-weight="700">10:30 · Court booking</text><rect x="38" y="429" width="105" height="25" fill="#D9F2E9" rx="12"/><text x="48" y="446" font-family="Arial,sans-serif" font-size="12" fill="#017670" font-weight="400">Confirmed</text><text x="255" y="447" font-family="Arial,sans-serif" font-size="12" fill="#00203F" font-weight="400">View details</text><rect x="20" y="488" width="350" height="119" fill="white" rx="12"/><text x="38" y="517" font-family="Arial,sans-serif" font-size="13" fill="#017670" font-weight="700">TUE 20 OCT</text><text x="38" y="546" font-family="Arial,sans-serif" font-size="18" fill="#00203F" font-weight="700">18:00 · Fitness session</text><rect x="38" y="564" width="105" height="25" fill="#D9F2E9" rx="12"/><text x="48" y="581" font-family="Arial,sans-serif" font-size="12" fill="#017670" font-weight="400">Upcoming</text><text x="255" y="582" font-family="Arial,sans-serif" font-size="12" fill="#00203F" font-weight="400">View details</text><rect x="20" y="640" width="350" height="78" fill="#E6E0FA" rx="12"/><text x="38" y="668" font-family="Arial,sans-serif" font-size="15" fill="#00203F" font-weight="700">Your package</text><text x="38" y="695" font-family="Arial,sans-serif" font-size="16" fill="#00203F" font-weight="400">4 of 5 sessions available</text><rect x="20" y="739" width="350" height="43" fill="#017670" rx="12"/><text x="119" y="766" font-family="Arial,sans-serif" font-size="16" fill="white" font-weight="700">Book a session</text></svg>